<svg width="200" height="220" fill="none" xmlns="http://www.w3.org/2000/svg">
    <g clip-path="url(#clip0)" filter="url(#filter0_dddddd)">
        <path d="M82.5 2.722C79.357 5.987 80 9.455 80 19.992c0 8.75-1.527 17.521 6.463 19.586 2.495.642 24.602.642 27.094-.003 3.326-.858 6.033-3.557 6.403-8.262.052-.656.052-21.975-.002-22.645-.393-5.011-3.478-7.9-7.543-8.485-.932-.135-1.118-.175-5.898-.183C89.562.008 85.845-.747 82.5 2.722z" fill="url(#paint0_linear)"/>
        <path d="M99.997 5.232c-6.052 0-11.799-.538-13.994 5.095-.906 2.327-.775 5.348-.775 9.675 0 3.797-.121 7.365.775 9.673 2.19 5.637 7.984 5.097 13.99 5.097 5.795 0 11.77.603 13.992-5.097.908-2.35.775-5.326.775-9.673 0-5.77.318-9.495-2.48-12.292-2.833-2.833-6.665-2.478-12.29-2.478h.007zm-1.324 2.662c12.624-.02 14.23-1.424 13.344 18.071-.315 6.895-5.565 6.139-12.019 6.139-11.766 0-12.105-.337-12.105-12.109 0-11.908.934-12.095 10.78-12.105v.004zm9.207 2.451a1.772 1.772 0 100 3.545 1.772 1.772 0 000-3.545zm-7.883 2.072a7.585 7.585 0 000 15.168 7.581 7.581 0 007.581-7.583 7.583 7.583 0 00-7.581-7.585zm0 2.662c6.508 0 6.516 9.846 0 9.846-6.507 0-6.517-9.846 0-9.846z" fill="#fff"/>
    </g>
    <defs>
        <linearGradient id="paint0_linear" x1="82.577" y1="37.445" x2="119.752" y2="5.27" gradientUnits="userSpaceOnUse">
            <stop stop-color="#FD5"/>
            <stop offset=".5" stop-color="#FF543E"/>
            <stop offset="1" stop-color="#C837AB"/>
        </linearGradient>
        <clipPath id="clip0">
            <path fill="#fff" transform="translate(80)" d="M0 0h40v40H0z"/>
        </clipPath>
        <filter id="filter0_dddddd" x="0" y="0" width="200" height="220" filterUnits="userSpaceOnUse" color-interpolation-filters="sRGB">
            <feFlood flood-opacity="0" result="BackgroundImageFix"/>
            <feColorMatrix in="SourceAlpha" values="0 0 0 0 0 0 0 0 0 0 0 0 0 0 0 0 0 0 127 0"/>
            <feOffset dy="2.767"/>
            <feGaussianBlur stdDeviation="1.107"/>
            <feColorMatrix values="0 0 0 0 0 0 0 0 0 0 0 0 0 0 0 0 0 0 0.0196802 0"/>
            <feBlend in2="BackgroundImageFix" result="effect1_dropShadow"/>
            <feColorMatrix in="SourceAlpha" values="0 0 0 0 0 0 0 0 0 0 0 0 0 0 0 0 0 0 127 0"/>
            <feOffset dy="6.65"/>
            <feGaussianBlur stdDeviation="2.66"/>
            <feColorMatrix values="0 0 0 0 0 0 0 0 0 0 0 0 0 0 0 0 0 0 0.0282725 0"/>
            <feBlend in2="effect1_dropShadow" result="effect2_dropShadow"/>
            <feColorMatrix in="SourceAlpha" values="0 0 0 0 0 0 0 0 0 0 0 0 0 0 0 0 0 0 127 0"/>
            <feOffset dy="12.522"/>
            <feGaussianBlur stdDeviation="5.009"/>
            <feColorMatrix values="0 0 0 0 0 0 0 0 0 0 0 0 0 0 0 0 0 0 0.035 0"/>
            <feBlend in2="effect2_dropShadow" result="effect3_dropShadow"/>
            <feColorMatrix in="SourceAlpha" values="0 0 0 0 0 0 0 0 0 0 0 0 0 0 0 0 0 0 127 0"/>
            <feOffset dy="22.336"/>
            <feGaussianBlur stdDeviation="8.935"/>
            <feColorMatrix values="0 0 0 0 0 0 0 0 0 0 0 0 0 0 0 0 0 0 0.0417275 0"/>
            <feBlend in2="effect3_dropShadow" result="effect4_dropShadow"/>
            <feColorMatrix in="SourceAlpha" values="0 0 0 0 0 0 0 0 0 0 0 0 0 0 0 0 0 0 127 0"/>
            <feOffset dy="41.778"/>
            <feGaussianBlur stdDeviation="16.711"/>
            <feColorMatrix values="0 0 0 0 0 0 0 0 0 0 0 0 0 0 0 0 0 0 0.0503198 0"/>
            <feBlend in2="effect4_dropShadow" result="effect5_dropShadow"/>
            <feColorMatrix in="SourceAlpha" values="0 0 0 0 0 0 0 0 0 0 0 0 0 0 0 0 0 0 127 0"/>
            <feOffset dy="100"/>
            <feGaussianBlur stdDeviation="40"/>
            <feColorMatrix values="0 0 0 0 0 0 0 0 0 0 0 0 0 0 0 0 0 0 0.07 0"/>
            <feBlend in2="effect5_dropShadow" result="effect6_dropShadow"/>
            <feBlend in="SourceGraphic" in2="effect6_dropShadow" result="shape"/>
        </filter>
    </defs>
</svg>
