<?xml version="1.0" encoding="utf-8"?><svg xmlns="http://www.w3.org/2000/svg" xmlns:xlink="http://www.w3.org/1999/xlink"><symbol viewBox="0 0 20 20" id="clock" xmlns="http://www.w3.org/2000/svg"><path d="M13.406 13.031l-3.37-2v-4.53c0-.4-.32-.72-.72-.72h-.06c-.4 0-.72.32-.72.72v4.72c0 .35.18.68.49.86l3.65 2.19c.34.2.78.1.98-.24.21-.35.1-.8-.25-1zm5.31-10.24l-3.08-2.56c-.42-.35-1.05-.3-1.41.13-.35.42-.29 1.05.13 1.41l3.07 2.56c.42.35 1.05.3 1.41-.13a1 1 0 00-.12-1.41zm-17.08 1.54l3.07-2.56c.43-.36.49-.99.13-1.41a.988.988 0 00-1.4-.13l-3.08 2.56a1 1 0 00-.12 1.41c.35.43.98.48 1.4.13zm7.9-2.55a9 9 0 10.002 18.002A9 9 0 009.536 1.78zm0 16c-3.86 0-7-3.14-7-7s3.14-7 7-7 7 3.14 7 7-3.14 7-7 7z"/></symbol><symbol viewBox="0 0 101 101" id="eye" xmlns="http://www.w3.org/2000/svg"><path d="M50.83 16.791c-20.873 0-38.698 12.983-45.92 31.31 7.222 18.325 25.047 31.308 45.92 31.308 20.872 0 38.697-12.983 45.919-31.309-7.222-18.326-25.047-31.309-45.92-31.309zm0 52.182c-11.522 0-20.873-9.351-20.873-20.873 0-11.521 9.35-20.872 20.873-20.872 11.521 0 20.872 9.35 20.872 20.872s-9.35 20.873-20.872 20.873zm0-33.396A12.507 12.507 0 0038.306 48.1c0 6.93 5.594 12.524 12.524 12.524 6.93 0 12.523-5.594 12.523-12.524 0-6.93-5.594-12.523-12.523-12.523z" fill-opacity=".54"/></symbol><symbol viewBox="0 0 14 20" id="map-tag" xmlns="http://www.w3.org/2000/svg"><path d="M7 0C3.13 0 0 3.13 0 7c0 4.17 4.42 9.92 6.24 12.11.4.48 1.13.48 1.53 0C9.58 16.92 14 11.17 14 7c0-3.87-3.13-7-7-7zm0 9.5a2.5 2.5 0 010-5 2.5 2.5 0 010 5z"/></symbol><symbol viewBox="0 0 20 20" id="phone" xmlns="http://www.w3.org/2000/svg"><path d="M20 13.846l-5.856-.678-2.8 2.8A16.719 16.719 0 014.02 8.645l2.811-2.811L6.154 0H.032C-.613 11.312 8.688 20.613 20 19.968v-6.122z"/></symbol><symbol viewBox="0 0 18 18" id="star" xmlns="http://www.w3.org/2000/svg"><path d="M9 14.52l4.15 2.51c.76.46 1.69-.22 1.49-1.08l-1.1-4.72 3.67-3.18c.67-.58.31-1.68-.57-1.75l-4.83-.41-1.89-4.46c-.34-.81-1.5-.81-1.84 0L6.19 5.88l-4.83.41C.48 6.36.12 7.46.79 8.04l3.67 3.18-1.1 4.72c-.2.86.73 1.54 1.49 1.08L9 14.52z"/></symbol></svg>