<?xml version="1.0" encoding="utf-8"?><svg xmlns="http://www.w3.org/2000/svg" xmlns:xlink="http://www.w3.org/1999/xlink"><symbol viewBox="0 0 17 17" id="call" xmlns="http://www.w3.org/2000/svg"><path d="M14.975 12.418c-.527-.531-1.804-1.306-2.424-1.619-.807-.406-.873-.44-1.507.032-.424.314-.705.595-1.2.49-.495-.106-1.57-.701-2.513-1.64-.942-.94-1.571-2.047-1.677-2.54-.106-.493.18-.771.49-1.195.44-.598.407-.697.031-1.504-.292-.628-1.09-1.893-1.623-2.418-.57-.563-.57-.463-.938-.31a5.15 5.15 0 00-.858.457c-.531.353-.826.646-1.032 1.086-.206.44-.3 1.474.766 3.408C3.555 8.6 4.302 9.59 5.848 11.131c1.546 1.542 2.735 2.37 4.473 3.346 2.15 1.204 2.975.97 3.417.763.442-.206.737-.498 1.09-1.029.18-.27.333-.558.459-.857.153-.366.252-.366-.312-.936z"/></symbol><symbol viewBox="0 0 20 20" id="clock" xmlns="http://www.w3.org/2000/svg"><path d="M13.406 13.031l-3.37-2v-4.53c0-.4-.32-.72-.72-.72h-.06c-.4 0-.72.32-.72.72v4.72c0 .35.18.68.49.86l3.65 2.19c.34.2.78.1.98-.24.21-.35.1-.8-.25-1zm5.31-10.24l-3.08-2.56c-.42-.35-1.05-.3-1.41.13-.35.42-.29 1.05.13 1.41l3.07 2.56c.42.35 1.05.3 1.41-.13a1 1 0 00-.12-1.41zm-17.08 1.54l3.07-2.56c.43-.36.49-.99.13-1.41a.988.988 0 00-1.4-.13l-3.08 2.56a1 1 0 00-.12 1.41c.35.43.98.48 1.4.13zm7.9-2.55a9 9 0 10.002 18.002A9 9 0 009.536 1.78zm0 16c-3.86 0-7-3.14-7-7s3.14-7 7-7 7 3.14 7 7-3.14 7-7 7z"/></symbol><symbol viewBox="0 0 40 43" id="close" xmlns="http://www.w3.org/2000/svg"><path d="M30.5 10.118a1.604 1.604 0 00-2.35 0L20 18.665l-8.15-8.564a1.604 1.604 0 00-2.35 0 1.807 1.807 0 000 2.47l8.15 8.563L9.5 29.7a1.807 1.807 0 000 2.47c.65.682 1.7.682 2.35 0L20 23.603l8.15 8.564c.65.683 1.7.683 2.35 0 .65-.683.65-1.786 0-2.47l-8.15-8.564 8.15-8.564c.633-.665.633-1.786 0-2.452z"/></symbol><symbol viewBox="0 0 24 24" id="email" xmlns="http://www.w3.org/2000/svg"><path d="M12.72 2.03A9.991 9.991 0 002.03 12.72C2.39 18.01 7.01 22 12.31 22H16c.55 0 1-.45 1-1s-.45-1-1-1h-3.67c-3.73 0-7.15-2.42-8.08-6.03-1.49-5.8 3.91-11.21 9.71-9.71C17.58 5.18 20 8.6 20 12.33v1.1c0 .79-.71 1.57-1.5 1.57s-1.5-.78-1.5-1.57v-1.25c0-2.51-1.78-4.77-4.26-5.12a5.008 5.008 0 00-5.66 5.87 4.996 4.996 0 003.72 3.94c1.84.43 3.59-.16 4.74-1.33.89 1.22 2.67 1.86 4.3 1.21 1.34-.53 2.16-1.9 2.16-3.34v-1.09c0-5.31-3.99-9.93-9.28-10.29zM12 15c-1.66 0-3-1.34-3-3s1.34-3 3-3 3 1.34 3 3-1.34 3-3 3z"/></symbol><symbol viewBox="0 0 101 101" id="eye" xmlns="http://www.w3.org/2000/svg"><path d="M50.83 16.791c-20.873 0-38.698 12.983-45.92 31.31 7.222 18.325 25.047 31.308 45.92 31.308 20.872 0 38.697-12.983 45.919-31.309-7.222-18.326-25.047-31.309-45.92-31.309zm0 52.182c-11.522 0-20.873-9.351-20.873-20.873 0-11.521 9.35-20.872 20.873-20.872 11.521 0 20.872 9.35 20.872 20.872s-9.35 20.873-20.872 20.873zm0-33.396A12.507 12.507 0 0038.306 48.1c0 6.93 5.594 12.524 12.524 12.524 6.93 0 12.523-5.594 12.523-12.524 0-6.93-5.594-12.523-12.523-12.523z" fill-opacity=".54"/></symbol><symbol viewBox="0 0 17 17" id="fb" xmlns="http://www.w3.org/2000/svg"><path d="M7.36 15.756l.75.118v-6.06H6.42V9.19h1.69V7.074c0-.704.207-1.17.497-1.46.29-.291.738-.48 1.367-.48.288 0 .589.023.84.05v.419h-.19c-.554 0-1.024.177-1.344.547-.304.351-.39.784-.39 1.142V9.19h1.738l-.096.624H8.89v6.06l.75-.117A7.306 7.306 0 008.5 1.236a7.305 7.305 0 00-1.14 14.52z"/></symbol><symbol viewBox="0 0 17 17" id="insta" xmlns="http://www.w3.org/2000/svg"><path d="M2.302 5.401a3.109 3.109 0 013.1-3.099h6.197a3.108 3.108 0 013.1 3.1v6.197a3.108 3.108 0 01-3.1 3.099H5.401a3.108 3.108 0 01-3.099-3.1V5.402zm-1.24 0V11.6a4.351 4.351 0 004.34 4.338h6.197a4.351 4.351 0 004.339-4.338V5.4a4.351 4.351 0 00-4.339-4.338H5.401A4.351 4.351 0 001.063 5.4z"/><path d="M5.401 4.471a.93.93 0 11-1.86 0 .93.93 0 011.86 0zm.62 4.029a2.48 2.48 0 114.958 0 2.48 2.48 0 01-4.958 0zm-1.24 0a3.719 3.719 0 107.437 0 3.719 3.719 0 00-7.437 0z"/></symbol><symbol viewBox="0 0 19 19" id="mail" xmlns="http://www.w3.org/2000/svg"><path d="M15.734 3.563H3.266c-.82 0-1.485.664-1.485 1.484v8.906c0 .82.665 1.485 1.485 1.485h12.468c.82 0 1.485-.665 1.485-1.485V5.047c0-.82-.665-1.484-1.485-1.484z"/><path d="M4.156 5.938L9.5 10.093l5.344-4.156"/></symbol><symbol viewBox="0 0 12 16" id="map" xmlns="http://www.w3.org/2000/svg"><path d="M6.286 14l-.41.378.41.444.41-.444-.41-.378zm0 0l.41.377.004-.004.01-.011.038-.042.14-.158a28.515 28.515 0 002-2.565c.546-.793 1.1-1.7 1.52-2.618.417-.91.72-1.876.72-2.779 0-2.64-2.176-4.757-4.842-4.757-2.667 0-4.843 2.117-4.843 4.757 0 .903.303 1.868.72 2.78.42.918.975 1.823 1.521 2.617a28.515 28.515 0 002.14 2.723l.038.042.01.011.003.003v.001l.41-.377zm0-6.857a.96.96 0 01-.974-.943.96.96 0 01.974-.943.96.96 0 01.973.943.96.96 0 01-.973.943z"/></symbol><symbol viewBox="0 0 14 20" id="map-tag" xmlns="http://www.w3.org/2000/svg"><path d="M7 0C3.13 0 0 3.13 0 7c0 4.17 4.42 9.92 6.24 12.11.4.48 1.13.48 1.53 0C9.58 16.92 14 11.17 14 7c0-3.87-3.13-7-7-7zm0 9.5a2.5 2.5 0 010-5 2.5 2.5 0 010 5z"/></symbol><symbol viewBox="0 0 20 20" id="phone" xmlns="http://www.w3.org/2000/svg"><path d="M20 13.846l-5.856-.678-2.8 2.8A16.719 16.719 0 014.02 8.645l2.811-2.811L6.154 0H.032C-.613 11.312 8.688 20.613 20 19.968v-6.122z"/></symbol><symbol viewBox="0 0 18 18" id="star" xmlns="http://www.w3.org/2000/svg"><path d="M9 14.52l4.15 2.51c.76.46 1.69-.22 1.49-1.08l-1.1-4.72 3.67-3.18c.67-.58.31-1.68-.57-1.75l-4.83-.41-1.89-4.46c-.34-.81-1.5-.81-1.84 0L6.19 5.88l-4.83.41C.48 6.36.12 7.46.79 8.04l3.67 3.18-1.1 4.72c-.2.86.73 1.54 1.49 1.08L9 14.52z"/></symbol></svg>