<svg width="200" height="220" fill="none" xmlns="http://www.w3.org/2000/svg">
    <g filter="url(#filter0_dddddd)">
        <path d="M120 0H80v40h40V0z" fill="#44678D"/>
        <path d="M90.362 12.173c.959 2.367 2.174 4.6 3.774 6.603.212.267.48.504.762.697.411.283.8.183.967-.288.177-.494.34-1.495.35-2.014a43.551 43.551 0 00-.078-3.599c-.047-.867-.355-1.629-1.631-1.859-.394-.071-.43-.395-.177-.719.527-.673 1.26-.78 2.057-.823 1.29-.07 2.585-.013 3.877 0a7.718 7.718 0 011.573.16c.676.147 1.038.621 1.15 1.281.057.34.087.69.079 1.035-.034 1.48-.105 2.96-.122 4.438-.007.581.035 1.176.16 1.741.173.789.71.986 1.259.417.696-.723 1.311-1.537 1.887-2.363 1.048-1.504 1.83-3.153 2.504-4.854.348-.878.615-1.069 1.559-1.071 1.775-.004 3.549-.006 5.324 0 .315.002.644.031.941.126.482.154.674.547.561 1.046-.264 1.169-.896 2.163-1.572 3.118-1.086 1.533-2.224 3.03-3.336 4.544a5.641 5.641 0 00-.383.608c-.415.751-.387 1.173.22 1.798.965.996 1.998 1.927 2.932 2.95.68.744 1.308 1.55 1.846 2.4.681 1.075.261 2.088-1.011 2.268-.8.113-4.708 0-4.91 0-1.051-.005-1.972-.37-2.713-1.083-.825-.794-1.575-1.666-2.367-2.495a6.612 6.612 0 00-.768-.698c-.648-.494-1.284-.384-1.587.377-.258.653-.482 2.37-.492 2.516-.055.766-.542 1.255-1.401 1.302-2.478.134-4.88-.142-7.118-1.34-1.896-1.016-3.41-2.452-4.723-4.127-2.084-2.66-3.73-5.583-5.232-8.593-.077-.154-1.599-3.393-1.64-3.546-.136-.512-.01-1.001.424-1.17.27-.104 5.288 0 5.371.005.801.043 1.347.38 1.684 1.212z" fill="#fff"/>
    </g>
    <defs>
        <filter id="filter0_dddddd" x="0" y="0" width="200" height="220" filterUnits="userSpaceOnUse" color-interpolation-filters="sRGB">
            <feFlood flood-opacity="0" result="BackgroundImageFix"/>
            <feColorMatrix in="SourceAlpha" values="0 0 0 0 0 0 0 0 0 0 0 0 0 0 0 0 0 0 127 0"/>
            <feOffset dy="2.767"/>
            <feGaussianBlur stdDeviation="1.107"/>
            <feColorMatrix values="0 0 0 0 0 0 0 0 0 0 0 0 0 0 0 0 0 0 0.0196802 0"/>
            <feBlend in2="BackgroundImageFix" result="effect1_dropShadow"/>
            <feColorMatrix in="SourceAlpha" values="0 0 0 0 0 0 0 0 0 0 0 0 0 0 0 0 0 0 127 0"/>
            <feOffset dy="6.65"/>
            <feGaussianBlur stdDeviation="2.66"/>
            <feColorMatrix values="0 0 0 0 0 0 0 0 0 0 0 0 0 0 0 0 0 0 0.0282725 0"/>
            <feBlend in2="effect1_dropShadow" result="effect2_dropShadow"/>
            <feColorMatrix in="SourceAlpha" values="0 0 0 0 0 0 0 0 0 0 0 0 0 0 0 0 0 0 127 0"/>
            <feOffset dy="12.522"/>
            <feGaussianBlur stdDeviation="5.009"/>
            <feColorMatrix values="0 0 0 0 0 0 0 0 0 0 0 0 0 0 0 0 0 0 0.035 0"/>
            <feBlend in2="effect2_dropShadow" result="effect3_dropShadow"/>
            <feColorMatrix in="SourceAlpha" values="0 0 0 0 0 0 0 0 0 0 0 0 0 0 0 0 0 0 127 0"/>
            <feOffset dy="22.336"/>
            <feGaussianBlur stdDeviation="8.935"/>
            <feColorMatrix values="0 0 0 0 0 0 0 0 0 0 0 0 0 0 0 0 0 0 0.0417275 0"/>
            <feBlend in2="effect3_dropShadow" result="effect4_dropShadow"/>
            <feColorMatrix in="SourceAlpha" values="0 0 0 0 0 0 0 0 0 0 0 0 0 0 0 0 0 0 127 0"/>
            <feOffset dy="41.778"/>
            <feGaussianBlur stdDeviation="16.711"/>
            <feColorMatrix values="0 0 0 0 0 0 0 0 0 0 0 0 0 0 0 0 0 0 0.0503198 0"/>
            <feBlend in2="effect4_dropShadow" result="effect5_dropShadow"/>
            <feColorMatrix in="SourceAlpha" values="0 0 0 0 0 0 0 0 0 0 0 0 0 0 0 0 0 0 127 0"/>
            <feOffset dy="100"/>
            <feGaussianBlur stdDeviation="40"/>
            <feColorMatrix values="0 0 0 0 0 0 0 0 0 0 0 0 0 0 0 0 0 0 0.07 0"/>
            <feBlend in2="effect5_dropShadow" result="effect6_dropShadow"/>
            <feBlend in="SourceGraphic" in2="effect6_dropShadow" result="shape"/>
        </filter>
    </defs>
</svg>
